<svg width="200" height="69" viewBox="0 0 200 69" fill="none" xmlns="http://www.w3.org/2000/svg">
<g clip-path="url(#clip0_471_11321)">
<path fill-rule="evenodd" clip-rule="evenodd" d="M71.1698 36.2101C70.1037 36.217 69.0383 36.1568 67.9798 36.0301C66.9798 35.9101 66.2098 35.7701 65.5098 35.6201C64.8098 35.4701 64.2698 35.3101 63.8598 35.1701L63.0598 34.8801C63.0598 34.8801 62.9998 34.8201 62.9998 34.8001L62.6998 31.6901C62.6998 31.6001 62.6998 31.5501 62.7998 31.5501H62.8598C63.0498 31.6601 63.3598 31.8101 63.8598 32.0201C64.4119 32.273 64.9838 32.4803 65.5698 32.6401C66.3817 32.8664 67.2065 33.0434 68.0398 33.1701C69.0912 33.3388 70.1549 33.4191 71.2198 33.4101C72.4576 33.4549 73.6936 33.2788 74.8698 32.8901C75.7498 32.5501 76.1898 32.0901 76.1898 31.5301C76.1816 31.4161 76.1487 31.3051 76.0935 31.205C76.0382 31.1048 75.9619 31.0179 75.8698 30.9501C75.5692 30.7294 75.23 30.5666 74.8698 30.4701C74.2806 30.3077 73.6783 30.1973 73.0698 30.1401C72.1931 30.0442 71.3116 30.0008 70.4298 30.0101C69.3315 30.0255 68.234 29.9452 67.1498 29.7701C66.3811 29.648 65.6294 29.4366 64.9098 29.1401C64.3932 28.9231 63.914 28.6262 63.4898 28.2601C63.1801 27.9736 62.9229 27.6352 62.7298 27.2601C62.57 26.9675 62.4618 26.6495 62.4098 26.3201C62.3742 26.0783 62.3541 25.8345 62.3498 25.5901C62.3188 24.7321 62.6034 23.8925 63.1498 23.2301C63.6958 22.5967 64.3801 22.0972 65.1498 21.7701C66.0476 21.3923 66.9931 21.14 67.9598 21.0201C68.9806 20.8819 70.0096 20.8117 71.0398 20.8101C71.8668 20.8188 72.6921 20.8856 73.5098 21.0101C74.2698 21.1301 74.9398 21.2601 75.5098 21.4001C75.9906 21.5213 76.4646 21.6682 76.9298 21.8401L77.6298 22.1301C77.6298 22.1301 77.6898 22.1301 77.6898 22.2101L77.8998 25.2101C77.8998 25.2901 77.8998 25.3301 77.7998 25.3301C77.4781 25.1381 77.1441 24.9677 76.7998 24.8201C76.2955 24.6007 75.7778 24.4137 75.2498 24.2601C74.5921 24.075 73.9244 23.9281 73.2498 23.8201C72.5128 23.6974 71.7668 23.6372 71.0198 23.6401C69.9926 23.6207 68.9657 23.6876 67.9498 23.8401C67.3288 23.9296 66.721 24.0941 66.1398 24.3301C65.7955 24.4577 65.4964 24.6838 65.2798 24.9801C65.1517 25.1736 65.0791 25.3984 65.0698 25.6301C65.0698 26.1968 65.5398 26.6068 66.4798 26.8601C67.7509 27.1565 69.055 27.2876 70.3598 27.2501C70.8498 27.2501 71.3598 27.2501 72.0298 27.2501C72.666 27.2803 73.3002 27.3437 73.9298 27.4401C74.5717 27.5422 75.2064 27.6858 75.8298 27.8701C76.4163 28.0445 76.9728 28.3075 77.4798 28.6501C77.9547 28.9659 78.3542 29.3824 78.6498 29.8701C78.9593 30.3967 79.1152 30.9995 79.0998 31.6101C79.0898 31.8318 79.0631 32.0525 79.0198 32.2701C78.9444 32.5956 78.8232 32.9087 78.6598 33.2001C78.4467 33.5703 78.1805 33.9072 77.8698 34.2001C77.4581 34.609 76.9817 34.9468 76.4598 35.2001C75.7693 35.5275 75.0402 35.766 74.2898 35.9101C73.2649 36.1055 72.2229 36.1959 71.1798 36.1801L71.1698 36.2101ZM63.6398 45.7001H67.6398C67.6748 45.6999 67.7093 45.708 67.7406 45.7239C67.7718 45.7397 67.7988 45.7627 67.8194 45.7911C67.8399 45.8195 67.8534 45.8523 67.8587 45.8869C67.864 45.9216 67.8609 45.9569 67.8498 45.9901L67.5598 46.9201C67.5407 46.9595 67.5109 46.9927 67.4737 47.0157C67.4365 47.0388 67.3935 47.0507 67.3498 47.0501H62.5098C62.4779 47.0516 62.446 47.0463 62.4163 47.0348C62.3865 47.0232 62.3595 47.0056 62.3369 46.983C62.3143 46.9604 62.2967 46.9334 62.2851 46.9036C62.2736 46.8739 62.2683 46.842 62.2698 46.8101V41.6801C62.2683 41.6482 62.2736 41.6164 62.2851 41.5866C62.2967 41.5569 62.3143 41.5299 62.3369 41.5073C62.3595 41.4847 62.3865 41.4671 62.4163 41.4555C62.446 41.444 62.4779 41.4387 62.5098 41.4401H63.3798C63.4117 41.4387 63.4435 41.444 63.4733 41.4555C63.503 41.4671 63.53 41.4847 63.5526 41.5073C63.5752 41.5299 63.5928 41.5569 63.6044 41.5866C63.6159 41.6164 63.6212 41.6482 63.6198 41.6801V45.6801L63.6398 45.7001ZM75.2198 46.1301H72.2198L71.8198 46.9301C71.7998 46.9688 71.7698 47.0013 71.7328 47.0242C71.6958 47.0471 71.6533 47.0595 71.6098 47.0601H70.6098C70.566 47.0607 70.523 47.0487 70.4858 47.0257C70.4486 47.0027 70.4188 46.9695 70.3998 46.9301C70.3852 46.8971 70.3776 46.8613 70.3776 46.8251C70.3776 46.789 70.3852 46.7532 70.3998 46.7201L72.9898 41.5401C73.039 41.494 73.1025 41.4658 73.1698 41.4601H74.2498C74.2935 41.4596 74.3365 41.4715 74.3737 41.4946C74.4109 41.5176 74.4407 41.5507 74.4598 41.5901L77.0398 46.7401C77.059 46.7754 77.0691 46.815 77.0691 46.8551C77.0691 46.8953 77.059 46.9349 77.0398 46.9701C77.0189 47.0043 76.9894 47.0324 76.9544 47.0517C76.9193 47.071 76.8798 47.0808 76.8398 47.0801H75.8398C75.7946 47.0812 75.7503 47.0683 75.7127 47.0433C75.6751 47.0182 75.6462 46.9822 75.6298 46.9401L75.2398 46.1501L75.2198 46.1301ZM80.9398 41.5401L84.3898 44.8801V41.6901C84.3883 41.6569 84.3938 41.6238 84.4059 41.5928C84.418 41.5618 84.4363 41.5337 84.4598 41.5102C84.4833 41.4867 84.5115 41.4683 84.5424 41.4563C84.5734 41.4442 84.6065 41.4387 84.6398 41.4401H85.5098C85.543 41.4387 85.5761 41.4442 85.6071 41.4563C85.638 41.4683 85.6662 41.4867 85.6897 41.5102C85.7132 41.5337 85.7315 41.5618 85.7436 41.5928C85.7557 41.6238 85.7612 41.6569 85.7598 41.6901V46.8001C85.7613 46.8342 85.7556 46.8683 85.7429 46.9C85.7302 46.9317 85.711 46.9603 85.6863 46.984C85.6617 47.0077 85.6324 47.0258 85.6002 47.0372C85.568 47.0486 85.5338 47.053 85.4998 47.0501H84.8098C84.774 47.0525 84.7383 47.0465 84.7053 47.0326C84.6723 47.0187 84.643 46.9973 84.6198 46.9701L81.1398 43.5901V46.8101C81.1399 46.8434 81.1331 46.8763 81.1198 46.9069C81.1065 46.9374 81.087 46.9648 81.0625 46.9873C81.0381 47.0099 81.0092 47.0271 80.9778 47.0379C80.9463 47.0488 80.9129 47.0529 80.8798 47.0501H80.0398C80.0071 47.053 79.9741 47.0489 79.9431 47.038C79.9122 47.0271 79.8839 47.0097 79.8602 46.9869C79.8365 46.9642 79.818 46.9367 79.8058 46.9062C79.7937 46.8757 79.7882 46.8429 79.7898 46.8101V41.7001C79.7883 41.6669 79.7938 41.6338 79.8059 41.6028C79.818 41.5718 79.8363 41.5437 79.8598 41.5202C79.8833 41.4967 79.9115 41.4783 79.9424 41.4663C79.9734 41.4542 80.0065 41.4487 80.0398 41.4501H80.7698C80.8064 41.4481 80.843 41.4553 80.8762 41.471C80.9094 41.4867 80.9381 41.5105 80.9598 41.5401H80.9398ZM89.1198 47.0601C89.079 47.0604 89.0385 47.0525 89.0008 47.0371C88.963 47.0216 88.9287 46.9989 88.8998 46.9701C88.8486 46.9121 88.8202 46.8375 88.8198 46.7601V41.7601C88.8168 41.72 88.8225 41.6796 88.8365 41.6419C88.8505 41.6041 88.8725 41.5699 88.901 41.5414C88.9295 41.5129 88.9638 41.4909 89.0015 41.4769C89.0393 41.4629 89.0796 41.4571 89.1198 41.4601H91.7798C92.2571 41.4565 92.7323 41.5239 93.1898 41.6601C93.5807 41.7723 93.9447 41.9629 94.2598 42.2201C94.5547 42.4602 94.7907 42.7647 94.9498 43.1101C95.1056 43.4768 95.1839 43.8717 95.1798 44.2701C95.1764 44.6104 95.1191 44.9479 95.0098 45.2701C94.8893 45.6142 94.6908 45.9257 94.4298 46.1801C94.1231 46.4626 93.7625 46.6803 93.3698 46.8201C92.8584 46.9945 92.3198 47.0758 91.7798 47.0601H89.1198ZM98.3498 45.1601L98.6798 45.3201C98.8691 45.4093 99.0667 45.4797 99.2698 45.5301C99.5528 45.6088 99.8399 45.6722 100.13 45.7201C100.497 45.777 100.868 45.8037 101.24 45.8001C101.66 45.8139 102.079 45.7564 102.48 45.6301C102.6 45.6301 102.83 45.4701 102.83 45.3101C102.828 45.2952 102.822 45.281 102.814 45.2688C102.805 45.2565 102.793 45.2467 102.78 45.2401C102.69 45.1738 102.588 45.1262 102.48 45.1001C102.28 45.0442 102.076 45.0073 101.87 44.9901C101.561 44.9536 101.251 44.9368 100.94 44.9401C100.538 44.9454 100.136 44.9153 99.7398 44.8501C99.4506 44.8068 99.1682 44.7261 98.8998 44.6101C98.6938 44.5322 98.5039 44.417 98.3398 44.2701C98.2173 44.1528 98.1128 44.018 98.0298 43.8701C97.9672 43.7474 97.9234 43.6159 97.8998 43.4801C97.8948 43.3835 97.8948 43.2867 97.8998 43.1901C97.8775 42.8268 97.9957 42.4689 98.2298 42.1901C98.4458 41.9419 98.7161 41.7469 99.0198 41.6201C99.3599 41.4827 99.7161 41.3886 100.08 41.3401C100.451 41.2916 100.825 41.2682 101.2 41.2701C101.508 41.2649 101.815 41.2849 102.12 41.3301C102.37 41.3301 102.62 41.4101 102.86 41.4701C103.037 41.5149 103.211 41.5717 103.38 41.6401L103.63 41.7401C103.672 41.7496 103.71 41.7741 103.735 41.809C103.761 41.8439 103.773 41.8869 103.77 41.9301L103.84 42.9301C103.848 42.9611 103.848 42.9935 103.841 43.0247C103.834 43.0559 103.82 43.085 103.799 43.1095C103.779 43.1339 103.753 43.1531 103.723 43.1654C103.694 43.1777 103.662 43.1828 103.63 43.1801H103.56C103.446 43.1142 103.329 43.0541 103.21 43.0001L102.68 42.8101C102.46 42.7501 102.23 42.7001 102.01 42.6601C101.755 42.6203 101.498 42.6003 101.24 42.6001C100.882 42.5935 100.524 42.617 100.17 42.6701C99.964 42.6987 99.7625 42.7525 99.5698 42.8301C99.4801 42.8619 99.4007 42.9171 99.3398 42.9901C99.3313 43.0364 99.3313 43.0838 99.3398 43.1301C99.3398 43.2901 99.5998 43.3701 99.7098 43.4001C100.149 43.4978 100.599 43.5414 101.05 43.5301H101.66C101.894 43.5391 102.128 43.5625 102.36 43.6001C102.596 43.6392 102.83 43.6926 103.06 43.7601C103.285 43.8312 103.501 43.9321 103.7 44.0601C103.89 44.1872 104.051 44.3545 104.17 44.5501C104.293 44.7661 104.355 45.0115 104.35 45.2601C104.36 45.3499 104.36 45.4404 104.35 45.5301C104.32 45.6655 104.273 45.7966 104.21 45.9201C104.118 46.0675 104.01 46.2049 103.89 46.3301C103.725 46.4793 103.54 46.6039 103.34 46.7001C103.079 46.8258 102.804 46.9166 102.52 46.9701C102.144 47.0435 101.762 47.0771 101.38 47.0701C100.989 47.0718 100.598 47.0484 100.21 47.0001C99.91 46.9705 99.6127 46.9204 99.3198 46.8501C99.1094 46.8121 98.9022 46.7587 98.6998 46.6901L98.3898 46.5701C98.3591 46.5527 98.3332 46.5281 98.314 46.4985C98.2949 46.469 98.2831 46.4352 98.2798 46.4001L98.1698 45.2901C98.1654 45.2602 98.1676 45.2296 98.1762 45.2005C98.1848 45.1715 98.1996 45.1446 98.2196 45.1218C98.2395 45.099 98.2642 45.0808 98.2918 45.0685C98.3195 45.0561 98.3495 45.0498 98.3798 45.0501L98.3498 45.1601ZM112.68 43.0701L112.42 42.9801L111.99 42.8501C111.8 42.8501 111.61 42.7701 111.43 42.7401C111.21 42.7252 110.989 42.7252 110.77 42.7401C110.469 42.74 110.17 42.7804 109.88 42.8601C109.609 42.9389 109.352 43.0605 109.12 43.2201C108.916 43.3607 108.742 43.541 108.61 43.7501C108.49 43.9493 108.428 44.1777 108.43 44.4101C108.427 44.5799 108.464 44.748 108.54 44.9001C108.613 45.0459 108.715 45.1752 108.84 45.2801C108.972 45.394 109.12 45.4883 109.28 45.5601C109.453 45.6339 109.63 45.6973 109.81 45.7501C109.988 45.7931 110.168 45.8265 110.35 45.8501C110.51 45.8601 110.67 45.8601 110.83 45.8501C111.031 45.85 111.232 45.8299 111.43 45.7901C111.613 45.7576 111.794 45.7108 111.97 45.6501C112.116 45.6056 112.26 45.5522 112.4 45.4901C112.5 45.4901 112.6 45.4001 112.7 45.3401H112.76C112.793 45.3376 112.826 45.3429 112.857 45.3557C112.888 45.3686 112.915 45.3885 112.936 45.4139C112.958 45.4393 112.973 45.4694 112.98 45.5018C112.988 45.5341 112.988 45.5679 112.98 45.6001L112.88 46.6001C112.878 46.6407 112.865 46.68 112.842 46.7135C112.819 46.747 112.787 46.7736 112.75 46.7901C112.474 46.9059 112.19 46.9995 111.9 47.0701C111.536 47.155 111.163 47.1952 110.79 47.1901C110.358 47.1764 109.929 47.1161 109.51 47.0101C109.085 46.9052 108.68 46.7331 108.31 46.5001C107.958 46.2715 107.658 45.9718 107.43 45.6201C107.199 45.2371 107.082 44.797 107.09 44.3501C107.082 43.9779 107.147 43.6078 107.28 43.2601C107.399 42.9613 107.572 42.6868 107.79 42.4501C108 42.2279 108.243 42.039 108.51 41.8901C108.762 41.7523 109.026 41.6385 109.3 41.5501C109.561 41.4686 109.828 41.4117 110.1 41.3801C110.325 41.3489 110.552 41.3322 110.78 41.3301C111.169 41.3232 111.558 41.3567 111.94 41.4301C112.22 41.4901 112.5 41.5501 112.79 41.6401C112.83 41.657 112.864 41.6847 112.888 41.72C112.913 41.7554 112.928 41.797 112.93 41.8401L113 42.8401C113.001 42.8699 112.996 42.8995 112.986 42.9274C112.976 42.9553 112.96 42.9807 112.939 43.0022C112.918 43.0237 112.894 43.0408 112.866 43.0525C112.839 43.0642 112.81 43.0702 112.78 43.0701H112.68ZM120.45 46.1301H117.4L117 46.9301C116.98 46.9688 116.95 47.0013 116.913 47.0242C116.876 47.0471 116.833 47.0595 116.79 47.0601H115.79C115.746 47.0607 115.703 47.0487 115.666 47.0257C115.629 47.0027 115.599 46.9695 115.58 46.9301C115.562 46.8979 115.553 46.8618 115.553 46.8251C115.553 46.7885 115.562 46.7524 115.58 46.7201L118.16 41.5401C118.209 41.494 118.272 41.4658 118.34 41.4601H119.51C119.554 41.4596 119.596 41.4715 119.634 41.4946C119.671 41.5176 119.701 41.5507 119.72 41.5901L122.3 46.7401C122.319 46.7754 122.329 46.815 122.329 46.8551C122.329 46.8953 122.319 46.9349 122.3 46.9701C122.279 47.0043 122.249 47.0324 122.214 47.0517C122.179 47.071 122.14 47.0808 122.1 47.0801H121.1C121.055 47.0798 121.011 47.0664 120.974 47.0415C120.937 47.0166 120.907 46.9814 120.89 46.9401L120.5 46.1501L120.45 46.1301ZM126.45 45.1301V46.7801C126.451 46.8107 126.446 46.8413 126.435 46.8698C126.424 46.8984 126.407 46.9243 126.386 46.9459C126.364 46.9676 126.338 46.9845 126.309 46.9955C126.281 47.0066 126.25 47.0116 126.22 47.0101H125.34C125.308 47.013 125.277 47.0092 125.247 46.9988C125.217 46.9884 125.19 46.9717 125.167 46.9499C125.145 46.9281 125.127 46.9017 125.115 46.8724C125.103 46.8431 125.098 46.8116 125.1 46.7801V41.6401C125.098 41.6078 125.104 41.5755 125.115 41.5452C125.127 41.5149 125.144 41.4873 125.166 41.4639C125.189 41.4406 125.216 41.422 125.246 41.4093C125.275 41.3966 125.307 41.3901 125.34 41.3901H129.34C129.585 41.3919 129.827 41.4465 130.05 41.5501C130.266 41.6552 130.462 41.7974 130.63 41.9701C130.799 42.1497 130.931 42.3602 131.02 42.5901C131.121 42.8269 131.168 43.0829 131.16 43.3401C131.157 43.5822 131.102 43.8208 131 44.0401C130.906 44.2553 130.77 44.4492 130.6 44.6101C130.436 44.7772 130.238 44.9068 130.02 44.9901C129.795 45.0855 129.554 45.1332 129.31 45.1301H126.45ZM135.45 42.7601V43.5301H138.45C138.487 43.5323 138.523 43.5424 138.556 43.5596C138.588 43.5769 138.617 43.6009 138.64 43.6301C138.654 43.6615 138.662 43.6956 138.662 43.7301C138.662 43.7647 138.654 43.7988 138.64 43.8301L138.35 44.7101C138.338 44.7595 138.31 44.8033 138.27 44.8343C138.23 44.8653 138.18 44.8815 138.13 44.8801H135.51V45.6501H139.51C139.546 45.6504 139.582 45.6587 139.615 45.6742C139.647 45.6897 139.677 45.7122 139.7 45.7401C139.719 45.7736 139.729 45.8115 139.729 45.8501C139.729 45.8888 139.719 45.9267 139.7 45.9601L139.42 46.8401C139.405 46.8858 139.375 46.9251 139.335 46.9522C139.295 46.9793 139.248 46.9926 139.2 46.9901H134.41C134.376 46.993 134.341 46.9886 134.309 46.9772C134.277 46.9658 134.248 46.9477 134.223 46.924C134.199 46.9003 134.179 46.8717 134.167 46.84C134.154 46.8083 134.148 46.7742 134.15 46.7401V41.7101C134.148 41.6756 134.154 41.6412 134.167 41.609C134.179 41.5768 134.198 41.5476 134.223 41.5232C134.247 41.4987 134.276 41.4796 134.309 41.4671C134.341 41.4545 134.375 41.4487 134.41 41.4501H139.24C139.287 41.4506 139.333 41.4651 139.372 41.4918C139.412 41.5185 139.442 41.5562 139.46 41.6001L139.74 42.4801C139.759 42.5154 139.769 42.555 139.769 42.5951C139.769 42.6353 139.759 42.6749 139.74 42.7101C139.717 42.738 139.687 42.7605 139.655 42.7761C139.622 42.7916 139.586 42.7998 139.55 42.8001L135.45 42.7601ZM145.45 43.7601V42.7601C145.448 42.7282 145.454 42.6964 145.465 42.6666C145.477 42.6369 145.494 42.6098 145.517 42.5873C145.539 42.5647 145.566 42.5471 145.596 42.5355C145.626 42.524 145.658 42.5187 145.69 42.5201H146.27C146.302 42.5187 146.333 42.524 146.363 42.5355C146.393 42.5471 146.42 42.5647 146.443 42.5873C146.465 42.6098 146.483 42.6369 146.494 42.6666C146.506 42.6964 146.511 42.7282 146.51 42.7601V43.7601H147.51C147.542 43.7587 147.573 43.764 147.603 43.7755C147.633 43.7871 147.66 43.8047 147.683 43.8273C147.705 43.8499 147.723 43.8769 147.734 43.9066C147.746 43.9364 147.751 43.9682 147.75 44.0001V44.5801C147.751 44.612 147.746 44.6439 147.734 44.6736C147.723 44.7034 147.705 44.7304 147.683 44.753C147.66 44.7756 147.633 44.7932 147.603 44.8048C147.573 44.8163 147.542 44.8216 147.51 44.8201H146.51V45.8201C146.511 45.8516 146.506 45.8831 146.494 45.9124C146.483 45.9417 146.465 45.9681 146.442 45.9899C146.419 46.0117 146.392 46.0284 146.363 46.0388C146.333 46.0492 146.301 46.053 146.27 46.0501H145.69C145.658 46.053 145.627 46.0492 145.597 46.0388C145.567 46.0284 145.54 46.0117 145.517 45.9899C145.495 45.9681 145.477 45.9417 145.465 45.9124C145.453 45.8831 145.448 45.8516 145.45 45.8201V44.8201H144.45C144.418 44.8216 144.386 44.8163 144.356 44.8048C144.326 44.7932 144.299 44.7756 144.277 44.753C144.254 44.7304 144.237 44.7034 144.225 44.6736C144.214 44.6439 144.208 44.612 144.21 44.5801V44.0001C144.208 43.9682 144.214 43.9364 144.225 43.9066C144.237 43.8769 144.254 43.8499 144.277 43.8273C144.299 43.8047 144.326 43.7871 144.356 43.7755C144.386 43.764 144.418 43.7587 144.45 43.7601H145.45ZM152.72 47.0001C152.68 47.0015 152.64 46.9947 152.603 46.9802C152.566 46.9656 152.533 46.9435 152.505 46.9154C152.476 46.8872 152.454 46.8536 152.44 46.8166C152.425 46.7796 152.418 46.7399 152.42 46.7001V41.7001C152.417 41.66 152.422 41.6196 152.437 41.5819C152.451 41.5441 152.473 41.5099 152.501 41.4814C152.529 41.4529 152.564 41.4309 152.602 41.4169C152.639 41.4029 152.68 41.3972 152.72 41.4001H155.37C155.85 41.3964 156.329 41.4638 156.79 41.6001C157.181 41.7123 157.545 41.9029 157.86 42.1601C158.155 42.3979 158.388 42.7032 158.54 43.0501C158.703 43.4147 158.785 43.8106 158.78 44.2101C158.776 44.5504 158.719 44.8879 158.61 45.2101C158.489 45.5565 158.287 45.8687 158.02 46.1201C157.717 46.4023 157.359 46.6201 156.97 46.7601C156.455 46.9347 155.913 47.0159 155.37 47.0001H152.72ZM163.06 42.7401V43.5101H166.06C166.097 43.5123 166.133 43.5224 166.166 43.5396C166.198 43.5569 166.227 43.5809 166.25 43.6101C166.264 43.6415 166.272 43.6756 166.272 43.7101C166.272 43.7447 166.264 43.7788 166.25 43.8101L165.96 44.6901C165.948 44.7395 165.92 44.7833 165.88 44.8143C165.84 44.8453 165.79 44.8615 165.74 44.8601H163.07V45.6301H167.07C167.106 45.6304 167.142 45.6387 167.175 45.6542C167.207 45.6697 167.237 45.6922 167.26 45.7201C167.279 45.7536 167.289 45.7915 167.289 45.8301C167.289 45.8688 167.279 45.9067 167.26 45.9401L166.98 46.8201C166.965 46.8657 166.935 46.9051 166.895 46.9322C166.855 46.9593 166.808 46.9726 166.76 46.9701H161.93C161.896 46.973 161.861 46.9686 161.829 46.9572C161.797 46.9458 161.768 46.9277 161.743 46.904C161.719 46.8803 161.699 46.8517 161.687 46.82C161.674 46.7883 161.668 46.7542 161.67 46.7201V41.7101C161.668 41.6756 161.674 41.6412 161.687 41.609C161.699 41.5768 161.718 41.5476 161.743 41.5232C161.767 41.4987 161.796 41.4796 161.829 41.4671C161.861 41.4545 161.895 41.4487 161.93 41.4501H166.76C166.807 41.4506 166.853 41.4651 166.892 41.4918C166.932 41.5185 166.962 41.5562 166.98 41.6001L167.26 42.4801C167.279 42.5154 167.289 42.555 167.289 42.5951C167.289 42.6353 167.279 42.6749 167.26 42.7101C167.237 42.738 167.207 42.7605 167.175 42.7761C167.142 42.7916 167.106 42.7998 167.07 42.8001L163.06 42.7401ZM170.42 45.1001C170.527 45.1594 170.637 45.2129 170.75 45.2601C170.936 45.3492 171.13 45.4196 171.33 45.4701C171.62 45.5501 171.91 45.6101 172.19 45.6601C172.557 45.7166 172.928 45.7434 173.3 45.7401C173.72 45.7547 174.139 45.6972 174.54 45.5701C174.67 45.5701 174.9 45.4101 174.9 45.2501C174.9 45.0901 174.9 45.1901 174.85 45.1801C174.757 45.1135 174.651 45.066 174.54 45.0401C174.341 44.9825 174.136 44.9456 173.93 44.9301C173.625 44.8933 173.317 44.8766 173.01 44.8801C172.605 44.8852 172.2 44.8551 171.8 44.7901C171.514 44.7454 171.235 44.6648 170.97 44.5501C170.764 44.4722 170.574 44.357 170.41 44.2101C170.287 44.0928 170.183 43.958 170.1 43.8101C170.037 43.6874 169.993 43.5559 169.97 43.4201C169.965 43.3235 169.965 43.2267 169.97 43.1301C169.95 42.7688 170.064 42.4127 170.29 42.1301C170.509 41.8815 170.783 41.6865 171.09 41.5601C171.426 41.4227 171.779 41.3286 172.14 41.2801C172.514 41.2319 172.892 41.2085 173.27 41.2101C173.578 41.2049 173.885 41.2249 174.19 41.2701C174.44 41.2701 174.68 41.3501 174.93 41.4101C175.106 41.4577 175.279 41.5145 175.45 41.5801L175.7 41.6801C175.74 41.6929 175.776 41.7181 175.801 41.7523C175.826 41.7864 175.84 41.8277 175.84 41.8701L175.91 42.8701C175.918 42.9011 175.918 42.9335 175.911 42.9647C175.904 42.9959 175.89 43.025 175.869 43.0495C175.849 43.0739 175.823 43.0931 175.793 43.1054C175.764 43.1177 175.732 43.1228 175.7 43.1201H175.63C175.52 43.0542 175.406 42.9941 175.29 42.9401L174.76 42.7501C174.54 42.6901 174.31 42.6401 174.08 42.6001C173.828 42.5603 173.574 42.5402 173.32 42.5401C172.962 42.5332 172.604 42.5566 172.25 42.6101C172.041 42.6386 171.836 42.6923 171.64 42.7701C171.555 42.8049 171.479 42.8598 171.42 42.9301C171.407 42.976 171.407 43.0243 171.42 43.0701C171.42 43.2301 171.67 43.3101 171.79 43.3401C172.229 43.4388 172.679 43.4825 173.13 43.4701H173.73C173.964 43.4781 174.198 43.5015 174.43 43.5401C174.666 43.5781 174.9 43.6315 175.13 43.7001C175.357 43.7673 175.573 43.8685 175.77 44.0001C175.963 44.1246 176.123 44.2924 176.24 44.4901C176.371 44.7034 176.437 44.9501 176.43 45.2001C176.435 45.2901 176.435 45.3802 176.43 45.4701C176.401 45.6073 176.35 45.7389 176.28 45.8601C176.194 46.0096 176.09 46.1474 175.97 46.2701C175.805 46.4193 175.62 46.5439 175.42 46.6401C175.159 46.7643 174.883 46.855 174.6 46.9101C174.221 46.9835 173.836 47.017 173.45 47.0101C173.062 47.0118 172.675 46.9884 172.29 46.9401C171.987 46.9098 171.686 46.8597 171.39 46.7901C171.183 46.7509 170.979 46.6975 170.78 46.6301L170.47 46.5101C170.439 46.4927 170.413 46.4681 170.394 46.4385C170.375 46.409 170.363 46.3752 170.36 46.3401L170.25 45.2301C170.245 45.2002 170.248 45.1696 170.256 45.1405C170.265 45.1115 170.28 45.0846 170.3 45.0618C170.32 45.039 170.344 45.0208 170.372 45.0084C170.399 44.9961 170.429 44.9898 170.46 44.9901L170.42 45.1001ZM179.28 46.9901C179.25 46.9916 179.221 46.9869 179.194 46.9763C179.167 46.9658 179.142 46.9496 179.121 46.9289C179.1 46.9082 179.084 46.8833 179.074 46.856C179.063 46.8287 179.058 46.7994 179.06 46.7701V41.6101C179.058 41.5804 179.063 41.5507 179.074 41.5229C179.084 41.495 179.1 41.4696 179.121 41.4481C179.141 41.4266 179.166 41.4095 179.193 41.3978C179.221 41.3861 179.25 41.3801 179.28 41.3801H180.18C180.241 41.3801 180.299 41.4044 180.342 41.4475C180.386 41.4906 180.41 41.5491 180.41 41.6101V46.7701C180.41 46.7999 180.404 46.8293 180.392 46.8567C180.38 46.8841 180.363 46.9088 180.342 46.9293C180.32 46.9499 180.295 46.9659 180.267 46.9764C180.239 46.9868 180.209 46.9915 180.18 46.9901H179.28ZM189.18 42.9901C188.919 42.8818 188.647 42.8013 188.37 42.7501C187.928 42.6684 187.479 42.6316 187.03 42.6401C186.719 42.6351 186.409 42.6755 186.11 42.7601C185.841 42.8257 185.586 42.941 185.36 43.1001C185.157 43.2345 184.986 43.412 184.86 43.6201C184.74 43.8302 184.678 44.0683 184.68 44.3101C184.677 44.4799 184.714 44.648 184.79 44.8001C184.87 44.9415 184.971 45.0697 185.09 45.1801C185.224 45.2923 185.372 45.3864 185.53 45.4601C185.706 45.5339 185.886 45.5973 186.07 45.6501C186.247 45.6949 186.428 45.7283 186.61 45.7501C186.77 45.7601 186.93 45.7601 187.09 45.7501C187.259 45.765 187.43 45.765 187.6 45.7501L188.05 45.6601L188.43 45.5301L188.66 45.4401V44.8901H186.51C186.478 44.8916 186.446 44.8863 186.416 44.8748C186.387 44.8632 186.359 44.8456 186.337 44.823C186.314 44.8004 186.297 44.7734 186.285 44.7436C186.274 44.7139 186.268 44.682 186.27 44.6501V43.7801C186.27 43.7491 186.276 43.7183 186.288 43.6898C186.3 43.6612 186.318 43.6354 186.341 43.6139C186.363 43.5924 186.39 43.5756 186.419 43.5647C186.448 43.5537 186.479 43.5488 186.51 43.5501H189.75C189.811 43.5501 189.869 43.5744 189.912 43.6175C189.956 43.6606 189.98 43.7191 189.98 43.7801V46.0601C189.981 46.1005 189.972 46.1405 189.955 46.1769C189.937 46.2134 189.912 46.2453 189.88 46.2701L189.54 46.4701C189.347 46.5868 189.142 46.6839 188.93 46.7601C188.66 46.8663 188.382 46.9532 188.1 47.0201C187.773 47.1016 187.437 47.1419 187.1 47.1401C186.652 47.1375 186.206 47.0838 185.77 46.9801C185.345 46.8769 184.939 46.7046 184.57 46.4701C184.213 46.2482 183.912 45.9471 183.69 45.5901C183.452 45.21 183.33 44.7685 183.34 44.3201C183.335 43.9783 183.396 43.6388 183.52 43.3201C183.742 42.7547 184.147 42.2796 184.67 41.9701C184.915 41.8156 185.177 41.6882 185.45 41.5901C185.716 41.4924 185.99 41.4187 186.27 41.3701C186.524 41.3303 186.782 41.3103 187.04 41.3101C187.326 41.2952 187.613 41.2952 187.9 41.3101C188.124 41.3186 188.348 41.342 188.57 41.3801L189.05 41.4501L189.3 41.5101C189.35 41.5213 189.395 41.5491 189.428 41.589C189.46 41.6289 189.479 41.6786 189.48 41.7301L189.54 42.7301C189.541 42.762 189.536 42.7939 189.524 42.8236C189.513 42.8534 189.495 42.8804 189.473 42.903C189.45 42.9256 189.423 42.9432 189.393 42.9548C189.363 42.9663 189.332 42.9716 189.3 42.9701C189.264 42.9804 189.226 42.9804 189.19 42.9701L189.18 42.9901ZM194.18 41.5001L197.62 44.8401V41.6501C197.62 41.5838 197.646 41.5202 197.693 41.4734C197.74 41.4265 197.803 41.4001 197.87 41.4001H198.73C198.762 41.4001 198.794 41.4066 198.824 41.4193C198.854 41.432 198.881 41.4506 198.903 41.4739C198.926 41.4973 198.943 41.5249 198.954 41.5552C198.966 41.5855 198.971 41.6178 198.97 41.6501V46.7601C198.971 46.7933 198.966 46.8265 198.954 46.8575C198.942 46.8884 198.923 46.9166 198.9 46.9401C198.876 46.9636 198.848 46.9819 198.817 46.994C198.786 47.0061 198.753 47.0116 198.72 47.0101H198.02C197.985 47.0125 197.951 47.0065 197.92 46.9925C197.888 46.9786 197.861 46.9572 197.84 46.9301L194.36 43.5501V46.7701C194.36 46.8034 194.353 46.8363 194.34 46.8668C194.326 46.8973 194.307 46.9248 194.283 46.9473C194.258 46.9699 194.229 46.9871 194.198 46.9979C194.166 47.0088 194.133 47.0129 194.1 47.0101H193.26C193.227 47.013 193.194 47.0089 193.163 46.998C193.132 46.9871 193.104 46.9697 193.08 46.947C193.057 46.9242 193.038 46.8967 193.026 46.8662C193.014 46.8357 193.008 46.8029 193.01 46.7701V41.6601C193.008 41.6269 193.014 41.5938 193.026 41.5628C193.038 41.5318 193.056 41.5037 193.08 41.4802C193.103 41.4567 193.131 41.4383 193.162 41.4263C193.193 41.4142 193.227 41.4087 193.26 41.4101H193.98C194.018 41.409 194.055 41.4164 194.09 41.432C194.125 41.4476 194.155 41.4709 194.18 41.5001ZM72.8398 44.7801H74.5098L73.6598 43.0901L72.8098 44.7801H72.8398ZM90.1698 45.7101H91.7798C92.1148 45.7139 92.4495 45.6872 92.7798 45.6301C93.0048 45.5856 93.2188 45.4973 93.4098 45.3701C93.5572 45.2599 93.6714 45.1111 93.7398 44.9401C93.8166 44.7184 93.8539 44.4848 93.8498 44.2501C93.8548 44.066 93.8243 43.8827 93.7598 43.7101C93.7004 43.5662 93.6158 43.4341 93.5098 43.3201C93.4017 43.2136 93.2766 43.1257 93.1398 43.0601C92.9992 42.9889 92.8518 42.9319 92.6998 42.8901L92.2298 42.8101H91.7898H90.1798V45.7301L90.1698 45.7101ZM118.07 44.7801H119.77L118.92 43.0901L118.07 44.7801ZM126.47 43.7801H129.38C129.443 43.7906 129.507 43.7906 129.57 43.7801C129.629 43.7529 129.683 43.7157 129.73 43.6701C129.774 43.6284 129.808 43.5771 129.83 43.5201C129.845 43.4577 129.845 43.3926 129.83 43.3301C129.844 43.2609 129.844 43.1894 129.83 43.1201C129.799 43.0567 129.762 42.9964 129.72 42.9401C129.673 42.8916 129.619 42.8511 129.56 42.8201C129.507 42.8051 129.452 42.8051 129.4 42.8201H126.51V43.8201L126.47 43.7801ZM153.78 45.6701H155.38C155.715 45.6733 156.049 45.6466 156.38 45.5901C156.602 45.5456 156.812 45.4572 157 45.3301C157.151 45.2213 157.269 45.0723 157.34 44.9001C157.417 44.6784 157.454 44.4448 157.45 44.2101C157.451 44.0254 157.417 43.8421 157.35 43.6701C157.294 43.5244 157.209 43.3917 157.1 43.2801C156.995 43.1738 156.874 43.0858 156.74 43.0201C156.596 42.9472 156.446 42.8902 156.29 42.8501L155.82 42.7701H155.38H153.78V45.6901V45.6701ZM85.3498 21.1301H87.6498C87.7127 21.1337 87.7726 21.1583 87.8198 21.2001C87.8425 21.2221 87.8604 21.2486 87.8725 21.2778C87.8845 21.3071 87.8904 21.3385 87.8898 21.3701V28.8001C87.8664 29.5449 88.0388 30.2828 88.3898 30.9401C88.7174 31.5035 89.1646 31.9882 89.6998 32.3601C90.2498 32.7296 90.8635 32.994 91.5098 33.1401C92.8561 33.4735 94.2634 33.4735 95.6098 33.1401C96.2592 32.9941 96.8761 32.7297 97.4298 32.3601C97.9619 31.9878 98.4058 31.503 98.7298 30.9401C99.0852 30.2845 99.2579 29.5454 99.2298 28.8001V21.4101C99.2264 21.3769 99.2306 21.3433 99.2421 21.312C99.2537 21.2807 99.2722 21.2524 99.2963 21.2292C99.3204 21.2061 99.3494 21.1887 99.3812 21.1785C99.413 21.1683 99.4467 21.1654 99.4798 21.1701H101.78C101.812 21.165 101.846 21.1677 101.877 21.1779C101.909 21.1882 101.937 21.2057 101.961 21.2291C101.984 21.2525 102.002 21.2811 102.012 21.3126C102.022 21.344 102.025 21.3775 102.02 21.4101V28.8401C102.032 29.8731 101.82 30.8965 101.4 31.8401C101.002 32.7293 100.415 33.521 99.6798 34.1601C98.8968 34.8329 97.9898 35.3459 97.0098 35.6701C95.8966 36.0348 94.731 36.2139 93.5598 36.2001C92.3853 36.2123 91.2167 36.0333 90.0998 35.6701C89.1197 35.3459 88.2127 34.8329 87.4298 34.1601C86.6917 33.5237 86.1042 32.7313 85.7098 31.8401C85.2972 30.8943 85.0894 29.872 85.0998 28.8401V21.4101C85.0998 21.2501 85.1798 21.1701 85.3498 21.1701V21.1301ZM108.74 21.1301H110.74C110.82 21.1301 110.87 21.1301 110.88 21.1901L121.3 31.3101H121.36C121.368 31.3121 121.377 31.3118 121.385 31.3095C121.393 31.3072 121.4 31.3028 121.406 31.2968C121.412 31.2908 121.417 31.2834 121.419 31.2752C121.421 31.267 121.422 31.2584 121.42 31.2501V21.2501C121.417 21.2231 121.419 21.1957 121.428 21.17C121.437 21.1442 121.452 21.1209 121.471 21.1016C121.49 21.0823 121.514 21.0677 121.54 21.0588C121.565 21.0499 121.593 21.0469 121.62 21.0501H124C124.028 21.0452 124.056 21.0469 124.083 21.055C124.11 21.0632 124.135 21.0776 124.155 21.097C124.176 21.1165 124.191 21.1405 124.201 21.1671C124.21 21.1937 124.213 21.2221 124.21 21.2501V35.5501C124.213 35.5808 124.21 35.6118 124.199 35.6407C124.189 35.6697 124.172 35.6958 124.149 35.7171C124.127 35.7384 124.1 35.7543 124.071 35.7635C124.041 35.7727 124.01 35.775 123.98 35.7701H122.05C122.022 35.7725 121.994 35.7683 121.968 35.7579C121.942 35.7475 121.918 35.7311 121.9 35.7101L111.43 25.6101C111.43 25.6101 111.43 25.6101 111.36 25.6101C111.353 25.6295 111.353 25.6507 111.36 25.6701V35.6701C111.36 35.8001 111.28 35.8701 111.14 35.8701H108.77C108.743 35.8734 108.715 35.8704 108.69 35.8615C108.664 35.8526 108.64 35.8379 108.621 35.8187C108.602 35.7994 108.587 35.776 108.578 35.7503C108.57 35.7246 108.567 35.6972 108.57 35.6701V21.3701C108.567 21.3431 108.57 21.3157 108.578 21.29C108.587 21.2642 108.602 21.2409 108.621 21.2216C108.64 21.2023 108.664 21.1877 108.69 21.1788C108.715 21.1699 108.743 21.1669 108.77 21.1701L108.74 21.1301ZM130.97 21.2301C130.968 21.214 130.97 21.1977 130.976 21.1824C130.981 21.1672 130.99 21.1533 131.001 21.1419C131.013 21.1304 131.027 21.1216 131.042 21.1161C131.057 21.1106 131.074 21.1086 131.09 21.1101H142.44C143.069 21.1024 143.692 21.2392 144.26 21.5101C144.813 21.762 145.309 22.1225 145.72 22.5701C146.145 23.0099 146.484 23.5255 146.72 24.0901C146.958 24.6499 147.08 25.2519 147.08 25.8601C147.082 26.4472 146.967 27.0287 146.74 27.5701C146.516 28.0849 146.194 28.5505 145.79 28.9401C145.371 29.3384 144.878 29.651 144.34 29.8601C143.766 30.0878 143.157 30.2098 142.54 30.2201C142.48 30.2201 142.48 30.2201 142.54 30.2801L147.48 35.6701C147.48 35.6701 147.48 35.7301 147.48 35.7701C147.472 35.7877 147.46 35.8027 147.444 35.8134C147.428 35.824 147.409 35.8298 147.39 35.8301H144.12C144.12 35.8301 144.07 35.8301 144.04 35.8301L138.95 30.3001C138.937 30.294 138.924 30.2908 138.91 30.2908C138.896 30.2908 138.882 30.294 138.87 30.3001H133.93C133.914 30.2986 133.897 30.3006 133.882 30.3061C133.867 30.3116 133.853 30.3204 133.841 30.3319C133.83 30.3433 133.821 30.3572 133.816 30.3724C133.81 30.3877 133.808 30.404 133.81 30.4201V35.7701C133.811 35.7863 133.809 35.8026 133.804 35.8178C133.798 35.8331 133.79 35.847 133.778 35.8584C133.767 35.8699 133.753 35.8787 133.737 35.8842C133.722 35.8896 133.706 35.8917 133.69 35.8901H131.14C131.124 35.8917 131.107 35.8896 131.092 35.8842C131.077 35.8787 131.063 35.8699 131.051 35.8584C131.04 35.847 131.031 35.8331 131.026 35.8178C131.02 35.8026 131.018 35.7863 131.02 35.7701V21.2901L130.97 21.2301ZM133.88 27.4301H142.44C142.656 27.4298 142.872 27.3995 143.08 27.3401C143.29 27.2798 143.49 27.1852 143.67 27.0601C143.843 26.9245 143.986 26.7542 144.09 26.5601C144.202 26.3444 144.257 26.1033 144.25 25.8601C144.252 25.5992 144.201 25.3406 144.1 25.1001C144.003 24.8697 143.864 24.6594 143.69 24.4801C143.515 24.3116 143.316 24.17 143.1 24.0601C142.896 23.9546 142.669 23.8997 142.44 23.9001H133.88C133.864 23.8986 133.847 23.9006 133.832 23.9061C133.817 23.9116 133.803 23.9204 133.791 23.9319C133.78 23.9433 133.771 23.9572 133.766 23.9724C133.76 23.9877 133.758 24.004 133.76 24.0201V27.3101C133.758 27.3263 133.76 27.3426 133.766 27.3578C133.771 27.3731 133.78 27.387 133.791 27.3984C133.803 27.4099 133.817 27.4187 133.832 27.4242C133.847 27.4296 133.864 27.4317 133.88 27.4301ZM153.26 35.8301C153.241 35.8337 153.221 35.8326 153.202 35.8268C153.184 35.821 153.167 35.8108 153.153 35.797C153.139 35.7832 153.129 35.7663 153.123 35.7477C153.117 35.7291 153.116 35.7093 153.12 35.6901V21.3101C153.116 21.291 153.117 21.2712 153.123 21.2526C153.129 21.234 153.139 21.217 153.153 21.2032C153.167 21.1895 153.184 21.1792 153.202 21.1735C153.221 21.1677 153.241 21.1666 153.26 21.1701H155.76C155.779 21.1686 155.797 21.1712 155.815 21.1777C155.833 21.1842 155.849 21.1945 155.862 21.2078C155.875 21.2211 155.886 21.2372 155.892 21.2548C155.899 21.2725 155.901 21.2914 155.9 21.3101V35.7501C155.901 35.7689 155.899 35.7878 155.892 35.8055C155.886 35.8231 155.875 35.8392 155.862 35.8525C155.849 35.8658 155.833 35.8761 155.815 35.8826C155.797 35.8891 155.779 35.8916 155.76 35.8901L153.26 35.8301ZM170.48 36.1501C169.41 36.1569 168.342 36.0968 167.28 35.9701C166.28 35.8501 165.51 35.7101 164.82 35.5601C164.259 35.438 163.705 35.2878 163.16 35.1101L162.36 34.8201C162.36 34.8201 162.3 34.7601 162.3 34.7401L162 31.6301C162 31.5401 162 31.4901 162.1 31.4901H162.16C162.35 31.6001 162.67 31.7501 163.11 31.9601C163.665 32.2128 164.241 32.4201 164.83 32.5801C165.639 32.8055 166.46 32.9825 167.29 33.1101C168.345 33.2792 169.412 33.3594 170.48 33.3501C171.714 33.395 172.947 33.2189 174.12 32.8301C175 32.4901 175.44 32.0301 175.44 31.4701C175.434 31.3554 175.403 31.2435 175.347 31.1429C175.292 31.0423 175.214 30.9559 175.12 30.8901C174.82 30.6675 174.481 30.5045 174.12 30.4101C173.531 30.2477 172.928 30.1373 172.32 30.0801C171.443 29.9837 170.562 29.9403 169.68 29.9501C168.582 29.9651 167.484 29.8848 166.4 29.7101C165.631 29.5869 164.88 29.3755 164.16 29.0801C163.645 28.8657 163.169 28.5685 162.75 28.2001C162.437 27.9138 162.177 27.5754 161.98 27.2001C161.823 26.907 161.718 26.589 161.67 26.2601C161.634 26.0183 161.614 25.7745 161.61 25.5301C161.576 24.6734 161.857 23.8339 162.4 23.1701C162.948 22.5388 163.631 22.0397 164.4 21.7101C165.301 21.3323 166.25 21.0799 167.22 20.9601C168.241 20.8216 169.27 20.7514 170.3 20.7501C171.139 20.7468 171.978 20.8036 172.81 20.9201C173.57 21.0401 174.236 21.1701 174.81 21.3101C175.288 21.4297 175.759 21.5766 176.22 21.7501L176.93 22.0401C176.93 22.0401 176.99 22.0401 176.99 22.1201L177.19 25.1201C177.19 25.2001 177.19 25.2401 177.09 25.2401H177.03C176.709 25.0469 176.375 24.8765 176.03 24.7301C175.526 24.5091 175.008 24.322 174.48 24.1701C173.842 23.9878 173.194 23.8409 172.54 23.7301C171.803 23.6078 171.057 23.5476 170.31 23.5501C169.283 23.5299 168.256 23.5968 167.24 23.7501C166.616 23.8398 166.005 24.0043 165.42 24.2401C165.076 24.3677 164.776 24.5937 164.56 24.8901C164.432 25.0836 164.359 25.3084 164.35 25.5401C164.35 26.1068 164.82 26.5168 165.76 26.7701C167.031 27.0653 168.335 27.1964 169.64 27.1601C170.14 27.1601 170.7 27.1601 171.32 27.1601C171.953 27.1903 172.584 27.2537 173.21 27.3501C173.852 27.4521 174.486 27.5958 175.11 27.7801C175.699 27.9563 176.258 28.2192 176.77 28.5601C177.24 28.8816 177.638 29.297 177.94 29.7801C178.241 30.3095 178.394 30.911 178.38 31.5201C178.37 31.7419 178.343 31.9625 178.3 32.1801C178.233 32.5066 178.115 32.8205 177.95 33.1101C177.73 33.4783 177.461 33.8147 177.15 34.1101C176.74 34.5167 176.267 34.8544 175.75 35.1101C175.059 35.436 174.33 35.6745 173.58 35.8201C172.555 36.015 171.513 36.1054 170.47 36.0901L170.48 36.1501ZM184.31 21.3501C184.31 21.2101 184.39 21.1301 184.55 21.1301H198.07C198.102 21.1298 198.133 21.1392 198.16 21.157C198.187 21.1748 198.208 21.2003 198.22 21.2301L199 23.7201C199.016 23.7398 199.025 23.7646 199.025 23.7901C199.025 23.8157 199.016 23.8404 199 23.8601C198.984 23.8795 198.964 23.8951 198.942 23.9055C198.919 23.9159 198.895 23.9209 198.87 23.9201H187.31C187.28 23.917 187.25 23.9205 187.222 23.9305C187.194 23.9404 187.168 23.9565 187.147 23.9776C187.126 23.9987 187.11 24.0242 187.1 24.0524C187.09 24.0805 187.087 24.1105 187.09 24.1401V27.0101C187.09 27.1101 187.09 27.1701 187.23 27.1701H195.87C195.893 27.1671 195.918 27.1711 195.939 27.1818C195.96 27.1925 195.978 27.2093 195.99 27.2301C196.001 27.248 196.008 27.2688 196.008 27.2901C196.008 27.3114 196.001 27.3323 195.99 27.3501L195.21 29.8301C195.201 29.8653 195.18 29.8964 195.151 29.9182C195.122 29.94 195.086 29.9513 195.05 29.9501H187.21C187.191 29.9486 187.172 29.9512 187.154 29.9577C187.137 29.9642 187.121 29.9745 187.107 29.9878C187.094 30.0011 187.084 30.0172 187.077 30.0348C187.071 30.0525 187.068 30.0714 187.07 30.0901V32.8601C187.068 32.9223 187.089 32.9829 187.13 33.0301C187.149 33.0531 187.174 33.0714 187.202 33.0835C187.229 33.0957 187.26 33.1013 187.29 33.1001H198.84C198.865 33.0994 198.889 33.1044 198.912 33.1148C198.934 33.1252 198.954 33.1407 198.97 33.1601C198.978 33.1676 198.985 33.1769 198.99 33.1872C198.994 33.1976 198.997 33.2088 198.997 33.2201C198.997 33.2315 198.994 33.2427 198.99 33.2531C198.985 33.2634 198.978 33.2726 198.97 33.2801L198.19 35.7701C198.178 35.8 198.157 35.8254 198.13 35.8433C198.103 35.8611 198.072 35.8705 198.04 35.8701H184.51C184.35 35.8701 184.27 35.7901 184.27 35.6501L184.31 21.3501Z" fill="white"/>
<path fill-rule="evenodd" clip-rule="evenodd" d="M25.86 22.5602L33.32 15.1002L36.14 12.2802L38.97 15.1002L36.14 17.9302L25.86 28.2102V22.5602ZM4.26998 29.8502C4.69217 27.8267 5.42411 25.8805 6.43998 24.0802L9.43998 27.0802L17.91 35.5502L21.91 39.5502L23.91 41.5502L25.91 39.5502L29.91 35.5502L38.33 27.0102L41.33 24.0102L44.24 21.1002C43.5191 19.9625 42.7064 18.8855 41.81 17.8802L38.98 20.7102L25.86 33.8602L23.86 35.8602L21.86 33.8602L8.78998 20.7802L5.95998 17.9502C5.05031 18.9495 4.23047 20.027 3.50998 21.1702C1.59117 24.2152 0.384504 27.654 -0.0200195 31.2302L3.83998 35.0902L13.84 45.0902L17.84 49.0902L21.84 53.0902L23.84 55.0902L25.84 53.0902L29.84 49.0902L33.84 45.0902L43.84 35.0902C43.5947 40.0283 41.52 44.6982 38.02 48.1902L33.83 52.3802L29.83 56.3802L25.83 60.3802L23.83 62.3802L21.83 60.3802L17.83 56.3802L13.83 52.3802L9.63998 48.1902L0.279982 38.8302C1.22426 43.4503 3.51356 47.6879 6.85998 51.0102L13.86 58.0102L17.86 62.0102L21.86 66.0102L23.86 68.0102L25.86 66.0102L29.86 62.0102L33.86 58.0102L40.86 51.0102C43.986 47.8669 46.1857 43.9232 47.2177 39.6119C48.2497 35.3006 48.074 30.7883 46.71 26.5702L43.51 29.8502L33.9 39.4502L29.9 43.4502L25.9 47.4502L23.9 49.4502L21.9 47.4502L17.9 43.4502L13.9 39.4502L4.29998 29.8502H4.26998ZM21.86 28.2102L11.58 17.9302L8.75998 15.1002L11.58 12.2802L14.41 15.1002L21.86 22.5602V28.2102ZM25.86 3.65023L23.86 5.65023L21.86 3.65023L21.04 2.82023L21.86 1.99023L23.86 -0.00976562L25.86 1.99023L26.69 2.82023L25.86 3.65023ZM27.67 8.53023L25.86 10.3402V16.0102L30.51 11.3502L32.86 9.01023L30.03 6.19023L27.67 8.55023V8.53023ZM21.86 16.0102V10.3402L20.06 8.53023L17.69 6.17023L14.87 9.01023L17.23 11.3702L21.86 16.0102Z" fill="white"/>
</g>
<defs>
<clipPath id="clip0_471_11321">
<rect width="199.02" height="68.03" fill="white"/>
</clipPath>
</defs>
</svg>
